<svg width="20" height="21" viewBox="0 0 20 21" fill="none" xmlns="http://www.w3.org/2000/svg">
<path d="M14.166 11.3265V13.8265C14.166 17.1598 12.8327 18.4932 9.49935 18.4932H6.33268C2.99935 18.4932 1.66602 17.1598 1.66602 13.8265V10.6598C1.66602 7.3265 2.99935 5.99316 6.33268 5.99316H8.83268" stroke="#7E8792" stroke-width="1.5" stroke-linecap="round" stroke-linejoin="round"/>
<path d="M14.1673 11.3265H11.5007C9.50065 11.3265 8.83398 10.6598 8.83398 8.65983V5.99316L14.1673 11.3265Z" stroke="#7E8792" stroke-width="1.5" stroke-linecap="round" stroke-linejoin="round"/>
<path d="M9.66602 1.82715H12.9993" stroke="#7E8792" stroke-width="1.5" stroke-linecap="round" stroke-linejoin="round"/>
<path d="M5.83398 4.32715C5.83398 2.94382 6.95065 1.82715 8.33398 1.82715H10.5173" stroke="#7E8792" stroke-width="1.5" stroke-linecap="round" stroke-linejoin="round"/>
<path d="M18.3339 6.82715V11.9855C18.3339 13.2771 17.2839 14.3271 15.9922 14.3271" stroke="#7E8792" stroke-width="1.5" stroke-linecap="round" stroke-linejoin="round"/>
<path d="M18.334 6.82715H15.834C13.959 6.82715 13.334 6.20215 13.334 4.32715V1.82715L18.334 6.82715Z" stroke="#7E8792" stroke-width="1.5" stroke-linecap="round" stroke-linejoin="round"/>
</svg>
