<svg width="20" height="21" viewBox="0 0 20 21" fill="none" xmlns="http://www.w3.org/2000/svg">
<path d="M12.9842 10.1601C12.9842 11.8101 11.6509 13.1434 10.0009 13.1434C8.35091 13.1434 7.01758 11.8101 7.01758 10.1601C7.01758 8.51009 8.35091 7.17676 10.0009 7.17676C11.6509 7.17676 12.9842 8.51009 12.9842 10.1601Z" stroke="#7E8792" stroke-width="1.5" stroke-linecap="round" stroke-linejoin="round"/>
<path d="M9.99987 17.0514C12.9415 17.0514 15.6832 15.3181 17.5915 12.3181C18.3415 11.1431 18.3415 9.1681 17.5915 7.9931C15.6832 4.9931 12.9415 3.25977 9.99987 3.25977C7.0582 3.25977 4.31654 4.9931 2.4082 7.9931C1.6582 9.1681 1.6582 11.1431 2.4082 12.3181C4.31654 15.3181 7.0582 17.0514 9.99987 17.0514Z" stroke="#7E8792" stroke-width="1.5" stroke-linecap="round" stroke-linejoin="round"/>
</svg>
