<svg width="151" height="150" viewBox="0 0 151 150" fill="none" xmlns="http://www.w3.org/2000/svg">
<g clip-path="url(#clip0_901_3639)">
<path d="M29.3029 46.5442L28.937 46.7744L28.1605 47.2735L26.9519 48.0435C26.3841 48.4089 25.6412 48.4145 24.8355 48.1224C24.6734 48.0624 24.5061 47.994 24.3354 47.9107C23.7413 47.6199 23.134 47.1777 22.5406 46.6186C22.4313 46.5147 22.3221 46.4108 22.216 46.2935C21.7399 45.805 21.283 45.2362 20.8688 44.6071C20.8384 44.5574 20.8012 44.5062 20.7708 44.4565C20.7251 44.3819 20.6727 44.3058 20.627 44.2313C20.2462 43.6101 19.9437 42.9866 19.7096 42.3724C19.6532 42.2246 19.6019 42.0852 19.5522 41.939C19.2932 41.1634 19.1595 40.4249 19.1415 39.7636C19.1364 39.5787 19.1446 39.397 19.158 39.2236C19.2347 38.3731 19.5514 37.7002 20.1193 37.3347L21.3113 36.575L22.0795 36.0809L22.4635 35.8339C23.99 34.8576 26.7622 36.4617 28.6447 39.4209C30.5421 42.3766 30.8293 45.5679 29.3029 46.5442Z" fill="#F3F3F3"/>
<path d="M28.9371 46.7748L28.1607 47.274C27.7255 47.2332 27.2628 47.1011 26.7793 46.8792L24.8356 48.1229C24.6735 48.0628 24.5063 47.9945 24.3355 47.9112L26.3123 46.6472L26.2989 46.644C25.7077 46.3115 25.1237 45.8607 24.5672 45.3246L22.5325 46.6241C22.4232 46.5202 22.3139 46.4163 22.2078 46.299L24.2426 44.9995C23.763 44.496 23.3144 43.9222 22.9053 43.3014L20.8607 44.6126L20.6189 44.2368L22.6717 42.9204C22.2945 42.3143 21.9853 41.6891 21.7378 41.0717L19.7047 42.3645C19.6483 42.2168 19.597 42.0773 19.5473 41.9312L21.5737 40.6367C21.3751 40.0805 21.2398 39.5253 21.1615 38.9979C21.1382 38.8298 21.1216 38.6634 21.1034 38.5036L19.1416 39.7641C19.1365 39.5792 19.1448 39.3975 19.1581 39.2241L21.0918 37.9922C21.0917 37.4623 21.1721 36.98 21.3181 36.577L22.0863 36.083C21.6616 36.617 21.478 37.4419 21.5613 38.4791C21.6729 39.8693 22.2494 41.4416 23.1897 42.9104C24.13 44.3791 25.3141 45.5672 26.5267 46.2535C27.4345 46.7679 28.2675 46.9463 28.9371 46.7748Z" fill="#6A4500"/>
<path d="M29.7293 43.4113C29.5749 42.2581 29.0458 40.9303 28.2508 39.6801C26.5477 37.0041 24.1967 35.5575 22.9037 36.3849C22.2199 36.8214 21.9893 37.7834 22.1658 38.9914C22.3212 40.0812 22.8199 41.3594 23.6301 42.6344C25.3415 45.3053 27.6925 46.752 28.9855 45.9246C29.6279 45.5134 29.8908 44.6228 29.7293 43.4113ZM28.7539 45.5653C27.6959 46.2371 25.5132 44.7955 23.9893 42.4027C22.4655 40.0098 22.0675 37.4278 23.1271 36.7493C24.1866 36.0708 26.3677 37.5191 27.8849 39.9103C28.6357 41.0793 29.1323 42.3074 29.2909 43.3839C29.2979 43.4139 29.2997 43.4355 29.3067 43.4654C29.4431 44.4872 29.2389 45.2506 28.7539 45.5653Z" fill="#6A4500"/>
<path d="M27.9441 44.1419L27.4043 43.2707C27.6588 42.8866 27.9173 42.3976 27.9992 41.9086C28.0691 41.558 28.0074 41.197 27.8345 40.8871C27.6937 40.6202 27.427 40.4362 27.1201 40.3909C26.7766 40.3509 26.4047 40.4879 26.085 40.6726C26.1742 40.4185 26.2116 40.1448 26.184 39.8769C26.1457 39.5357 25.9728 39.2258 25.6977 39.0185C25.5181 38.8836 25.2138 38.7683 24.751 38.9611L24.267 38.181C24.201 38.0734 24.0541 38.0381 23.9465 38.1042C23.8388 38.1702 23.8036 38.3172 23.8696 38.4248L24.3434 39.1883C24.2341 39.2611 24.1284 39.3487 24.0293 39.438C23.9483 39.5105 23.9329 39.6339 23.9887 39.725L26.4465 43.9665C26.4634 43.9847 26.4735 44.0013 26.4904 44.0194C26.5895 44.1068 26.7393 44.1003 26.8251 44.0078C26.8432 43.991 26.957 43.8699 27.1084 43.6801L27.5466 44.3857C27.5822 44.4436 27.6426 44.4864 27.7109 44.4957C27.8328 44.5178 27.9519 44.4334 27.9756 44.3048C27.9884 44.2514 27.9745 44.1915 27.9441 44.1419ZM25.3532 41.133L24.4994 39.6567C24.7689 39.4458 25.1931 39.2084 25.413 39.3812C26.0173 39.8652 25.609 40.7139 25.3532 41.133ZM26.6914 43.4459L25.6159 41.5986C25.9246 41.3123 26.5942 40.7876 27.0595 40.8497C27.223 40.8748 27.3606 40.9784 27.432 41.1227C27.8282 41.7969 27.1539 42.8716 26.6914 43.4459Z" fill="#6A4500"/>
</g>
<g clip-path="url(#clip1_901_3639)">
<path d="M93.4831 88.3296C92.7494 85.1548 91.1467 82.2302 88.7962 79.9785C88.519 79.7078 88.2101 79.4721 87.8763 79.2763C87.8763 79.2763 84.5151 80.0112 83.9714 77.0473C82.4183 78.6653 80.1951 79.3061 81.3764 76.9373C84.3073 71.0605 86.9282 69.293 88.9591 69.2905C91.6768 69.2872 95.2145 71.7306 96.7896 73.8204C98.9211 76.6483 101.031 80.5591 102.992 84.8984C104.41 88.0346 105.749 91.3946 106.962 94.7314L94.7662 93.6644L93.4831 88.3296Z" fill="#D7ABA5"/>
<path d="M83.9377 77.6037C83.8983 77.6151 83.8563 77.6132 83.8181 77.5982C83.7799 77.5832 83.7476 77.556 83.7263 77.5208C83.7049 77.4856 83.6957 77.4444 83.7 77.4035C83.7044 77.3626 83.722 77.3243 83.7502 77.2945C83.7847 77.2581 87.2185 73.6266 88.9595 71.4333C88.9747 71.4141 88.9936 71.3981 89.015 71.3862C89.0365 71.3743 89.0601 71.3668 89.0844 71.364C89.1088 71.3613 89.1334 71.3634 89.157 71.3702C89.1806 71.377 89.2026 71.3885 89.2218 71.4038C89.241 71.4192 89.257 71.4382 89.2689 71.4597C89.2808 71.4813 89.2883 71.5049 89.2911 71.5294C89.2939 71.5538 89.2918 71.5786 89.2851 71.6022C89.2783 71.6259 89.267 71.6479 89.2517 71.6672C87.5005 73.8735 84.0559 77.5163 84.0212 77.5529C83.9983 77.577 83.9695 77.5945 83.9377 77.6037Z" fill="#6A4500"/>
<path d="M96.8803 80.7377C96.8525 80.7457 96.8232 80.7471 96.7947 80.7418C94.7916 80.3675 93.3037 79.5064 91.658 77.7693C90.3822 76.4228 89.5236 76.1564 87.9651 75.6726C87.8178 75.6269 87.6645 75.5793 87.5042 75.5288C86.7989 75.3065 86.4484 75.0079 86.4626 74.6415C86.4949 73.8105 88.4426 73.3042 89.0392 73.1687C91.6232 72.5818 93.6888 73.5267 93.7757 73.5671C93.7979 73.5775 93.8179 73.5922 93.8345 73.6103C93.8511 73.6285 93.864 73.6497 93.8725 73.6728C93.8809 73.6959 93.8848 73.7205 93.8838 73.7451C93.8828 73.7696 93.8769 73.7938 93.8666 73.8161C93.8563 73.8384 93.8418 73.8584 93.8237 73.875C93.8057 73.8917 93.7846 73.9046 93.7616 73.913C93.7386 73.9214 93.7141 73.9252 93.6896 73.9241C93.6651 73.9231 93.6411 73.9172 93.6188 73.9068C93.592 73.8945 91.5734 72.9775 89.1228 73.5341C87.6522 73.868 86.8474 74.3616 86.8359 74.6568C86.8295 74.8231 87.121 75.0154 87.6157 75.1713C87.7754 75.2217 87.9281 75.2691 88.0749 75.3146C89.6405 75.8005 90.5854 76.0938 91.9285 77.5115C93.5148 79.1859 94.9443 80.0151 96.8625 80.3736C96.9038 80.3813 96.9414 80.4028 96.9691 80.4346C96.9968 80.4664 97.013 80.5067 97.0151 80.5489C97.0172 80.591 97.0051 80.6326 96.9806 80.6669C96.9562 80.7012 96.9209 80.7262 96.8805 80.7378L96.8803 80.7377Z" fill="#6A4500"/>
<path d="M91.1985 77.2396L91.1924 77.2414C87.1305 78.2669 85.3396 76.1795 85.2654 76.0902C85.2496 76.0713 85.2377 76.0494 85.2304 76.026C85.223 76.0025 85.2204 75.9778 85.2225 75.9533C85.2247 75.9288 85.2316 75.9049 85.243 75.8831C85.2543 75.8614 85.2698 75.842 85.2886 75.8263C85.3074 75.8105 85.3291 75.7987 85.3525 75.7913C85.3759 75.784 85.4005 75.7814 85.4249 75.7836C85.4742 75.7881 85.5198 75.8121 85.5516 75.8502C85.5569 75.8565 85.9841 76.3561 86.8736 76.73C87.6977 77.0763 89.1 77.3832 91.1006 76.878C91.1483 76.8651 91.1993 76.8718 91.2423 76.8966C91.2853 76.9214 91.3167 76.9622 91.3297 77.0102C91.3427 77.0582 91.3361 77.1094 91.3115 77.1524C91.2869 77.1955 91.2463 77.2269 91.1985 77.2399L91.1985 77.2396Z" fill="#6A4500"/>
<path d="M88.7715 78.5105C88.6213 78.5527 88.4681 78.5836 88.3132 78.6029C85.251 79.0068 83.9867 77.4724 83.9344 77.4069C83.9036 77.3682 83.8894 77.3188 83.8948 77.2696C83.9002 77.2204 83.9248 77.1753 83.9632 77.1444C84.0016 77.1134 84.0507 77.0989 84.0998 77.1042C84.1488 77.1095 84.1939 77.1341 84.225 77.1725C84.2369 77.1868 85.4233 78.6058 88.2639 78.2316C88.967 78.139 89.1606 77.917 89.1645 77.8004C89.1679 77.6953 89.0293 77.5577 88.7915 77.5092C88.7671 77.5046 88.7438 77.4953 88.7231 77.4816C88.7023 77.468 88.6845 77.4503 88.6706 77.4297C88.6567 77.4091 88.647 77.3859 88.6421 77.3615C88.6372 77.3371 88.6372 77.312 88.6421 77.2876C88.647 77.2632 88.6567 77.24 88.6706 77.2195C88.6845 77.1989 88.7024 77.1814 88.7231 77.1678C88.7439 77.1543 88.7672 77.145 88.7915 77.1406C88.8159 77.1362 88.8409 77.1367 88.8652 77.1421C89.2713 77.225 89.5478 77.5011 89.5377 77.8136C89.5324 77.9721 89.4392 78.3181 88.7715 78.5105Z" fill="#6A4500"/>
<path d="M88.0539 79.6225C88.0112 79.6347 87.9678 79.6446 87.9241 79.6521C87.8753 79.6604 87.8251 79.649 87.7847 79.6202C87.7442 79.5915 87.7168 79.5478 87.7083 79.4988C87.6999 79.4498 87.7112 79.3995 87.7398 79.359C87.7683 79.3185 87.8117 79.291 87.8605 79.2827C88.16 79.2314 88.3456 79.0397 88.3539 78.8838C88.3616 78.7375 88.1944 78.6672 88.0941 78.6384C88.0703 78.6319 88.048 78.6206 88.0285 78.6054C88.009 78.5901 87.9928 78.5711 87.9806 78.5495C87.9685 78.5279 87.9607 78.5041 87.9578 78.4795C87.9549 78.4549 87.9569 78.4299 87.9636 78.4061C87.9704 78.3823 87.9818 78.3601 87.9972 78.3407C88.0125 78.3214 88.0316 78.3053 88.0532 78.2934C88.0748 78.2815 88.0986 78.2741 88.1232 78.2715C88.1477 78.2689 88.1725 78.2712 88.1962 78.2783C88.5435 78.3783 88.7421 78.6124 88.7267 78.9045C88.7097 79.2255 88.4344 79.5128 88.0539 79.6225Z" fill="#6A4500"/>
</g>
<g clip-path="url(#clip2_901_3639)">
<path d="M121.45 136.2C127.553 136.2 132.5 135.193 132.5 133.95C132.5 132.708 127.553 131.7 121.45 131.7C115.347 131.7 110.4 132.708 110.4 133.95C110.4 135.193 115.347 136.2 121.45 136.2Z" fill="#6A4500"/>
</g>
<g clip-path="url(#clip3_901_3639)">
<path d="M61.8018 76.068L57.5909 44.2405L57.5825 44.2072L57.5158 44.1738L46.0339 38.5332L50.4532 73.4018L61.8018 76.068Z" fill="#F0DDB9"/>
<path d="M45.4667 38.317L49.7109 72.3941L49.811 73.1689V73.1773L49.8443 73.4772C49.886 73.8188 50.1945 74.0688 50.5364 74.0271C50.8116 73.9938 51.02 73.7938 51.0784 73.5439C51.0951 73.4772 51.0951 73.4106 51.0868 73.3356V73.3189L50.9533 72.2774L50.9033 71.8608L46.8509 39.3418L57.007 44.6075L60.9261 74.2437L60.9844 74.6853L61.1512 75.9101L61.1845 76.1434C61.2262 76.4517 61.4931 76.685 61.8016 76.685C61.8266 76.685 61.86 76.685 61.885 76.6766C62.2268 76.635 62.4687 76.3184 62.427 75.9768L62.2936 74.9936L62.2352 74.552L58.2077 44.1159C58.1827 43.916 58.0577 43.7327 57.8742 43.641L57.8075 43.6077L46.3756 37.6838C46.067 37.5255 45.6918 37.6421 45.5334 37.9504C45.475 38.067 45.45 38.192 45.4667 38.317Z" fill="#F3F3F3"/>
<path d="M50.2864 71.9687C50.4615 71.902 50.645 71.8604 50.8451 71.8604H50.9118C51.0035 71.8604 51.0953 71.877 51.187 71.902L60.9429 74.2432L61.5933 74.4016L62.2437 74.5599L62.3021 75.0014L61.0013 74.6848L51.0953 72.3019L50.9702 72.2769C50.9285 72.2769 50.8951 72.2686 50.8534 72.2686C50.8201 72.2686 50.7117 72.2769 50.7034 72.2769C50.6867 72.2769 50.6617 72.2853 50.645 72.2853C50.6283 72.2853 50.6116 72.2936 50.595 72.2936C50.5533 72.3019 50.5032 72.3186 50.4615 72.3353C50.4532 72.3353 50.4449 72.3436 50.4282 72.3436C50.4032 72.3519 50.3698 72.3686 50.3448 72.3853C50.3198 72.4019 50.2948 72.4103 50.2781 72.4269C50.2698 72.4352 50.2614 72.4436 50.2447 72.4436C50.1614 72.5019 50.0863 72.5769 50.0196 72.6519L49.9696 72.7269L49.9446 72.7769C49.9279 72.8102 49.9029 72.8435 49.8862 72.8852C49.8779 72.9018 49.8779 72.9102 49.8695 72.9268C49.8445 73.0018 49.8195 73.0768 49.8111 73.1601L49.7111 72.3853C49.8612 72.2103 50.0613 72.0603 50.2864 71.9687ZM85.9414 81.017C85.9247 80.9837 85.9081 80.9587 85.883 80.9254C85.9081 80.9587 85.9247 80.992 85.9414 81.017Z" fill="white"/>
<path d="M50.5949 74.3353L84.6489 82.5171C86.1582 82.8587 86.4584 80.8174 85.2826 80.5258L62.2937 75.0018L60.9929 74.6852L51.0869 72.3023C51.0869 72.3023 50.3781 72.094 49.9695 72.7439C49.5026 73.4854 50.0863 74.2103 50.5949 74.3353Z" fill="#6A4500"/>
<path d="M52.0872 74.0262C51.8799 74.0262 51.7119 73.8584 51.7119 73.6513C51.7119 73.4442 51.8799 73.2764 52.0872 73.2764C52.2944 73.2764 52.4624 73.4442 52.4624 73.6513C52.4624 73.8584 52.2944 74.0262 52.0872 74.0262Z" fill="#F3F3F3"/>
<path d="M56.2983 74.9427C56.4817 74.9427 56.6318 74.7927 56.6318 74.6094C56.6318 74.4511 56.5234 74.3178 56.3733 74.2845L53.8718 73.7013C53.6884 73.6596 53.5133 73.7679 53.4716 73.9512C53.4299 74.1345 53.5383 74.3095 53.7217 74.3512L56.2233 74.9344C56.2483 74.9427 56.2733 74.9427 56.2983 74.9427Z" fill="#F3F3F3"/>
</g>
<g clip-path="url(#clip4_901_3639)">
<path d="M119.271 48.8799C119.271 48.8799 121.11 53.4518 125.022 56.5832C126.892 58.0784 128.308 59.4015 133.323 60.8967C140.372 62.9948 143.016 68.1694 141.999 74.8237C141.272 79.56 142.672 82.2374 144.112 84.766C148.337 92.2031 144.112 102.302 131.594 104.651C131.594 104.651 129.325 97.6518 123.77 88.6803C116.447 76.8513 111.306 56.3483 114.366 50.8527L119.271 48.8799Z" fill="#6A4500"/>
<path d="M101.292 52.1526C101.965 52.9511 104.781 53.4835 106.174 53.6009C109.609 55.7224 109.217 62.2201 109.139 64.8818C109.139 64.8818 118.332 67.935 120.953 63.9424C120.953 63.9424 116.572 55.5659 115.836 48.7942C115.891 48.8255 115.954 48.849 116.009 48.8803C116.298 49.029 116.564 49.1543 116.799 49.2717L116.893 49.3187L116.963 49.35C117.002 49.3735 117.041 49.3891 117.08 49.4048C117.166 49.4439 117.253 49.4831 117.331 49.5222C117.362 49.5379 117.393 49.5535 117.425 49.5614C117.738 49.7023 117.988 49.8119 118.199 49.9058C118.231 49.9215 118.262 49.9293 118.293 49.945C118.324 49.9606 118.348 49.9684 118.379 49.9841C118.41 49.9997 118.434 50.0076 118.457 50.0154C118.481 50.0232 118.512 50.0389 118.536 50.0467C118.575 50.0624 118.614 50.078 118.645 50.0937C118.661 50.1015 118.684 50.1094 118.7 50.1172C118.77 50.1485 118.841 50.172 118.903 50.2033C122.823 47.2598 123.77 40.1436 118.418 36.6051C118.356 36.566 118.301 36.5268 118.238 36.4877C118.231 36.4877 118.231 36.4798 118.223 36.4798C117.292 35.877 116.267 35.4386 115.187 35.1803C112.754 34.6245 110.289 35.2664 108.318 36.7695C107.504 37.4036 106.769 38.116 106.104 38.8989C105.9 39.1337 105.712 39.3842 105.525 39.6347L105.517 39.6426C105.266 39.9792 105.032 40.3315 104.797 40.6759C104.625 40.9265 104.453 41.1691 104.273 41.4118C104.038 41.725 103.764 42.1086 103.443 42.3513C103.13 42.5861 102.731 42.6566 102.348 42.7035C101.527 42.7818 101.84 43.9248 102.262 44.418C101.699 45.8271 99.6489 50.1876 101.292 52.1526Z" fill="#D7ABA5"/>
<path d="M104.812 40.6916C109.1 45.5688 114.201 47.933 114.201 47.933L108.153 42.1477L105.712 39.807L105.54 39.6426L105.532 39.6504C105.282 39.9949 105.047 40.3471 104.812 40.6916Z" fill="#6A4500"/>
<path opacity="0.52" d="M108.85 50.5238C109.948 50.5238 110.837 49.6335 110.837 48.5353C110.837 47.4371 109.948 46.5469 108.85 46.5469C107.753 46.5469 106.863 47.4371 106.863 48.5353C106.863 49.6335 107.753 50.5238 108.85 50.5238Z" fill="#E8B351"/>
<path d="M108.49 42.8758C109.218 43.6978 109.249 44.7546 108.819 45.06C108.388 45.3653 107.473 44.9034 106.91 43.964C106.331 43.001 106.174 42.0381 106.581 41.7798C107.004 41.5136 107.77 42.0616 108.49 42.8758Z" fill="#6A4500"/>
<path d="M102.818 47.9013C102.982 48.0187 103.178 48.0891 103.381 48.1048C103.585 48.1283 103.78 48.1048 103.976 48.0422C104.07 48.0109 104.156 47.9639 104.234 47.9091C104.32 47.8543 104.39 47.7916 104.461 47.7134C104.594 47.5646 104.688 47.3767 104.735 47.181V47.1732C104.758 47.0793 104.852 47.0166 104.946 47.0401C105.016 47.0558 105.071 47.1184 105.079 47.1889C105.11 47.4863 105.032 47.7838 104.86 48.0265C104.774 48.1518 104.672 48.2614 104.555 48.3475C104.437 48.4336 104.304 48.5119 104.164 48.5588C103.882 48.6606 103.577 48.6684 103.295 48.6058C103.154 48.5745 103.013 48.5197 102.888 48.4414C102.755 48.3631 102.646 48.2614 102.56 48.1361C102.505 48.0578 102.528 47.9482 102.607 47.8934C102.669 47.8543 102.747 47.8543 102.81 47.9013H102.818Z" fill="#6A4500"/>
<path d="M106.628 44.6528C106.37 44.2613 105.728 43.3376 105.368 42.2494C105.321 42.1007 105.157 42.0145 105.001 42.0693C104.609 42.2024 104.015 42.5312 104.351 43.2436C104.774 44.1126 106.018 44.9424 106.518 44.8876C106.597 44.8798 106.659 44.8015 106.644 44.7232C106.651 44.6919 106.644 44.6684 106.628 44.6528Z" fill="#6A4500"/>
<path d="M132.815 52.0037C132.071 54.2271 121.282 50.9939 118.794 50.2188C118.528 50.1327 118.356 50.0779 118.301 50.0623C118.286 50.0544 118.278 50.0544 118.278 50.0544L118.286 50.0466L118.301 50.0153L118.481 49.6787L121.736 43.5098C121.736 43.5098 122.831 44.1909 123.622 44.6606C126.571 46.4298 133.268 50.6572 132.815 52.0037Z" fill="#D19D3B"/>
<path d="M123.621 44.6606C122.823 48.1521 120.28 49.8196 118.786 50.2188C118.59 50.2736 118.379 50.305 118.176 50.3128L118.293 50.0623L118.473 49.6787L121.728 43.5098C121.743 43.5098 122.839 44.1909 123.621 44.6606Z" fill="#6A4500"/>
<path d="M105.533 39.6582C105.728 39.9479 106.01 40.3472 106.26 40.6603C106.26 40.6681 106.268 40.6681 106.268 40.6681C106.675 41.1848 107.184 41.7798 107.763 42.4061C107.809 42.4609 107.856 42.5078 107.896 42.547C109.789 44.5902 112.324 46.9153 114.202 47.9252C114.827 48.2618 115.375 48.5437 115.845 48.7863C115.899 48.8177 115.962 48.8411 116.017 48.8725C116.306 49.0212 116.572 49.1465 116.807 49.2639L116.901 49.3109L116.971 49.3422C117.01 49.3657 117.049 49.3813 117.089 49.397C117.175 49.4361 117.261 49.4753 117.339 49.5144C117.37 49.5301 117.401 49.5457 117.433 49.5535C117.746 49.6945 117.996 49.8041 118.207 49.898C118.239 49.9137 118.27 49.9215 118.301 49.9371C118.333 49.9528 118.356 49.9606 118.387 49.9763C118.419 49.9919 118.442 49.9998 118.466 50.0076C118.489 50.0154 118.622 50.1172 118.692 50.1485C123.136 47.2833 123.786 40.1358 118.434 36.5973C118.372 36.5581 118.317 36.519 118.254 36.4799C118.246 36.4799 118.246 36.472 118.239 36.472C117.308 35.8692 116.283 35.4308 115.203 35.1725C112.77 34.6167 110.305 35.2586 108.334 36.7617C108.193 36.8635 108.06 36.9731 107.927 37.0827C107.277 37.6385 106.667 38.2413 106.12 38.891C105.908 39.1572 105.72 39.3999 105.533 39.6582Z" fill="#D19D3B"/>
<path d="M114.201 47.9328C114.201 47.9328 116.525 47.1029 118.113 48.5982C119.608 50.0073 118.152 52.6299 114.334 52.7552C113.56 52.763 112.793 52.6456 112.058 52.4029L114.201 47.9328Z" fill="#D7ABA5"/>
<path d="M113.216 52.3792C113.114 52.34 113.004 52.3792 112.957 52.481C112.91 52.5827 112.957 52.6923 113.051 52.7393C113.098 52.7628 113.732 53.0368 114.765 53.0368C115.383 53.029 115.993 52.935 116.588 52.7628C116.556 52.6375 116.525 52.5044 116.494 52.3792C114.561 52.9585 113.231 52.387 113.216 52.3792Z" fill="#6A4500"/>
<path d="M110.728 53.3504C110.423 52.9042 109.562 53.2017 109.046 53.3113C108.021 53.5383 107.223 53.6557 106.174 53.6009C106.213 53.6244 106.253 53.6479 106.3 53.6792C107.168 54.2585 107.786 55.1353 108.216 56.153C110.172 55.4485 111.056 53.828 110.728 53.3504Z" fill="#6A4500"/>
<path d="M113.137 50.7275C113.028 50.7275 112.942 50.6414 112.942 50.5318C112.942 50.4692 112.973 50.4144 113.02 50.3752C115.039 48.8095 116.783 49.8116 116.862 49.8507C116.956 49.9055 116.987 50.023 116.932 50.1169C116.877 50.2108 116.76 50.2422 116.666 50.1874C116.603 50.1482 115.07 49.2871 113.263 50.6806C113.224 50.7119 113.177 50.7275 113.137 50.7275Z" fill="#6A4500"/>
<path d="M105.533 39.6576C105.728 39.9472 106.01 40.3465 106.26 40.6596C106.26 40.6675 106.268 40.6675 106.268 40.6675C106.675 41.1841 107.184 41.7791 107.763 42.4054C107.809 42.4602 107.856 42.5072 107.896 42.5463C108.568 42.0923 109.39 40.9571 109.437 39.9237C109.484 38.8904 108.999 37.8962 107.927 37.1055C107.277 37.6613 106.667 38.2641 106.12 38.9139C105.908 39.1566 105.72 39.3992 105.533 39.6576ZM117.832 99.7965C124.114 100.243 135.647 98.998 137.626 102.693C139.347 105.903 127.612 108.017 113.474 101.824C113.466 101.824 116.541 99.7026 117.832 99.7965Z" fill="#6A4500"/>
<path d="M34.7972 135.699C33.7018 135.636 32.6691 135.581 31.6911 135.519C31.519 135.511 31.3469 135.503 31.1747 135.488C31.1122 135.488 31.0574 135.48 30.9948 135.48C30.5723 135.456 30.1655 135.433 29.7664 135.409C24.9626 135.127 22.1382 134.947 22.1382 134.947C22.1382 134.947 17.1622 133.131 18.5392 122.813C18.5392 122.813 23.2414 122.492 28.3895 121.952C29.5083 121.835 30.6427 121.701 31.7615 121.561L34.7972 135.699Z" fill="#D7ABA5"/>
<path d="M29.7664 135.409C24.9626 135.128 22.1382 134.948 22.1382 134.948C22.1382 134.948 17.1622 133.131 18.5392 122.813C18.5392 122.813 23.2414 122.492 28.3895 121.952L29.7664 135.409Z" fill="#F0DDB9"/>
<path d="M27.3645 135.268L25.964 122.194C25.698 122.218 25.4398 122.241 25.1816 122.265L26.5665 135.221C26.8247 135.237 27.0907 135.252 27.3645 135.268Z" fill="white"/>
<path d="M34.7973 135.699C33.7019 135.636 32.6692 135.582 31.6912 135.519C31.5191 135.511 31.347 135.503 31.1748 135.488C30.9401 131.941 31.3235 125.49 31.7616 121.553L34.7973 135.699Z" fill="#6A4500"/>
<path d="M128.542 97.4252C134.809 109.661 137.047 117.803 130.412 127.51C123.778 137.218 110.712 136.278 106.252 134.713C89.5091 136.043 78.0862 129.076 70.7318 130.407C63.3774 131.738 52.1111 136.905 34.7969 135.699C34.7969 135.699 32.4732 126.962 31.769 121.561L58.7613 118.351L63.0644 114.828C63.0644 114.828 54.4582 113.497 49.6857 107.626C49.6857 107.626 64.8639 83.1225 78.008 84.2968C90.8313 85.4397 110.086 101.441 110.086 101.441L128.542 97.4252Z" fill="#D19D3B"/>
<path d="M78.1647 110.538C78.2429 110.499 78.329 110.523 78.3759 110.601C78.7906 107.219 79.5729 103.203 81.0438 100.338C81.0829 100.259 81.0517 100.165 80.9734 100.126C80.8952 100.087 80.8013 100.118 80.7622 100.197C78.9862 103.673 78.1959 108.808 77.8595 112.503C77.4605 116.793 77.4918 120.911 77.6796 122.923C77.6874 123.001 77.7578 123.064 77.8361 123.064H77.8517C77.9378 123.056 78.0004 122.978 77.9925 122.892C77.7969 120.895 77.7735 116.801 78.1725 112.534C78.2116 112.088 78.2664 111.619 78.3211 111.125L78.1099 110.75C78.0629 110.679 78.0864 110.585 78.1647 110.538Z" fill="white"/>
<path d="M89.9161 124.183C84.948 119.681 80.4179 114.35 78.3759 110.608C78.3368 110.538 78.2429 110.506 78.1647 110.545C78.0864 110.585 78.063 110.678 78.1021 110.757L78.3133 111.133C80.4805 114.922 84.7993 119.971 89.7127 124.418C95.1737 129.365 100.705 132.99 105.486 134.775C105.744 134.759 106.002 134.743 106.26 134.72C106.409 134.775 106.565 134.822 106.73 134.869C101.738 133.279 95.784 129.498 89.9161 124.183ZM81.9123 128.113C81.9045 128.027 81.8184 127.964 81.7402 127.98C78.9001 128.363 76.0366 128.911 70.6772 130.414C70.6929 130.414 70.7085 130.406 70.7242 130.406C71.2875 130.305 71.8821 130.25 72.5002 130.242C76.7564 129.099 79.2835 128.629 81.7793 128.293C81.8654 128.277 81.9279 128.199 81.9123 128.113Z" fill="white"/>
<path d="M8.44657 104.987C7.27299 105.88 5.896 108.432 5.896 112.98V135.096C10.4886 134.47 15.9653 134.704 22.2322 134.877C21.9036 131.808 20.0259 130.712 19.6347 127.972C19.1105 124.277 19.8772 124.41 18.0151 118.28C17.9838 118.178 17.9604 118.084 17.9369 117.983C17.9291 117.951 17.9213 117.928 17.9134 117.904C17.4518 116.221 16.8337 114.593 16.0592 113.035C13.0392 107.031 8.90036 105.175 8.48569 105.003C8.47787 104.995 8.47004 104.995 8.46222 104.995L8.44657 104.987Z" fill="white"/>
<path d="M5.89579 135.3C5.78626 135.3 5.7002 135.214 5.7002 135.104V112.981C5.7002 108.456 7.05372 105.802 8.32119 104.831C8.37595 104.792 8.44637 104.776 8.51678 104.808H8.52461C8.53243 104.808 8.54808 104.816 8.5559 104.823C8.56372 104.831 8.56372 104.823 8.56372 104.831C9.09575 105.058 13.4223 107.039 16.4267 113.028C17.2091 114.601 17.835 116.245 18.2966 117.936L18.3201 118.014C18.3279 118.054 18.3357 118.085 18.3514 118.116C18.367 118.179 18.3827 118.241 18.4061 118.304C18.8051 119.627 19.298 121.882 19.3763 122.782C19.3841 122.892 19.3059 122.986 19.1963 122.993C19.0868 123.001 18.9929 122.923 18.9851 122.813C18.9069 121.937 18.4296 119.721 18.0306 118.422C18.0071 118.351 17.9915 118.288 17.9758 118.218C17.968 118.187 17.9602 118.155 17.9523 118.116L17.9289 118.038C17.4751 116.37 16.857 114.75 16.0824 113.2C13.2267 107.532 9.20528 105.536 8.47766 105.215C7.30408 106.186 6.09139 108.706 6.09139 112.981V134.885C11.3568 134.368 14.9871 134.478 19.1729 134.595C20.1196 134.627 21.0975 134.65 22.1146 134.674C22.2242 134.674 22.3102 134.768 22.3024 134.877C22.3024 134.987 22.2085 135.073 22.099 135.065C21.0741 135.042 20.0961 135.01 19.1494 134.987C14.9167 134.861 11.263 134.752 5.89579 135.3C5.91144 135.3 5.90362 135.3 5.89579 135.3Z" fill="#6A4500"/>
<path d="M14.275 134.869C14.1733 134.869 14.0873 134.791 14.0794 134.697C14.0716 134.642 13.9464 133.241 15.2765 131.338C15.5581 130.939 15.8007 130.618 16.0197 130.336C16.8412 129.272 17.2481 128.739 17.5141 126.673C17.5297 126.563 17.6315 126.493 17.7332 126.508C17.8349 126.524 17.9131 126.618 17.8975 126.727C17.6158 128.904 17.162 129.499 16.3249 130.579C16.1058 130.861 15.8633 131.182 15.5894 131.565C14.3376 133.343 14.455 134.642 14.455 134.658C14.4628 134.767 14.3846 134.861 14.2829 134.869H14.275ZM10.2927 134.947C10.1832 134.947 10.0971 134.861 10.0971 134.752C10.0971 134.697 10.1206 134.642 10.1597 134.603C10.191 134.579 12.0609 132.834 11.6932 130.094C11.5289 128.849 11.0281 128.215 10.4961 127.549C10.0971 127.041 9.68243 126.516 9.42424 125.717C9.09564 124.708 9.22082 123.972 9.346 123.259C9.48683 122.43 9.63548 121.568 9.04869 120.191C8.09418 117.928 7.53869 115.752 7.38221 113.732C7.1475 110.624 7.86729 107.868 9.5103 105.535C9.57289 105.449 9.69807 105.426 9.78414 105.489C9.8702 105.551 9.89367 105.676 9.83108 105.763C8.24284 108.017 7.54651 110.694 7.77341 113.701C7.92206 115.681 8.46973 117.811 9.40859 120.034C10.0345 121.521 9.87802 122.437 9.72937 123.322C9.61201 124.019 9.50248 124.676 9.79196 125.592C10.0267 126.32 10.4022 126.798 10.8012 127.299C11.3411 127.98 11.8966 128.685 12.0765 130.039C12.4755 132.998 10.4961 134.814 10.4179 134.893C10.3866 134.932 10.3396 134.947 10.2927 134.947Z" fill="#6A4500"/>
<path d="M8.54823 133.021C7.64848 133.021 6.94434 131.878 6.94434 130.415C6.94434 128.951 7.64848 127.808 8.54823 127.808C9.44797 127.808 10.1521 128.951 10.1521 130.415C10.1521 131.878 9.44797 133.021 8.54823 133.021ZM8.54823 128.199C7.89102 128.199 7.33553 129.217 7.33553 130.415C7.33553 131.612 7.89102 132.63 8.54823 132.63C9.20543 132.63 9.76092 131.612 9.76092 130.415C9.76092 129.217 9.20543 128.199 8.54823 128.199Z" fill="#6A4500"/>
<path d="M13.8683 122.679C13.5475 122.679 13.2815 122.421 13.2815 122.092C13.2815 121.857 13.4223 121.646 13.6336 121.552C13.6414 121.552 14.2986 121.255 15.0732 120.542C16.1137 119.595 16.8726 118.389 17.3264 116.972C17.4281 116.667 17.7567 116.495 18.0619 116.589C18.367 116.683 18.5391 117.019 18.4452 117.325C17.1934 121.239 14.2282 122.57 14.103 122.625C14.0326 122.664 13.9544 122.679 13.8683 122.679ZM12.8355 119.994C12.5148 119.994 12.2488 119.728 12.2488 119.407C12.2488 119.188 12.3739 118.984 12.5695 118.883C12.593 118.867 15.347 117.419 16.1216 114.107C16.192 113.794 16.5049 113.59 16.8257 113.661C17.1387 113.731 17.3421 114.045 17.2717 114.365V114.373C16.3719 118.233 13.2424 119.861 13.1094 119.932C13.0233 119.971 12.9294 119.994 12.8355 119.994ZM12.014 116.894C11.6933 116.894 11.4272 116.636 11.4272 116.307C11.4272 116.088 11.5446 115.892 11.7402 115.79C11.7637 115.775 14.0952 114.475 14.7524 111.492C14.8228 111.179 15.1358 110.976 15.4487 111.046C15.7617 111.117 15.9651 111.43 15.8947 111.743C15.1201 115.266 12.4052 116.761 12.2957 116.824C12.2018 116.863 12.1079 116.886 12.014 116.894Z" fill="#F3F3F3"/>
<path d="M100.619 86.0967C105.079 89.5412 110.469 92.5474 116.11 94.1601C119.396 95.0995 127.611 96.9784 126.203 100.188C124.662 103.687 113.45 101.832 100.619 86.0967Z" fill="#6A4500"/>
<path d="M120.414 95.3586C120.085 96.5799 119.694 97.7855 119.24 98.9676C119.201 99.0615 119.162 99.1633 119.123 99.2572C108.678 125.076 80.1598 96.2354 73.8616 91.961C68.7214 88.4695 65.0989 89.1427 61.2652 87.8902C57.4315 86.6376 58.3704 84.837 58.3704 84.837C57.1968 82.8016 57.9792 82.1753 57.9792 82.1753C56.4927 80.2965 57.0404 78.8091 57.0404 78.8091C56.5005 78.2141 56.0076 77.5878 55.5538 76.9302C52.5886 72.4836 56.6492 75.5993 58.4486 76.3822C56.1015 73.5639 58.6521 75.0435 63.2212 75.7559C67.759 76.4605 71.9917 77.9166 75.1134 78.8873C85.2062 82.0188 99.7586 89.1427 99.7586 89.1427C99.7586 89.1427 100.072 88.125 100.384 87.029L120.414 95.3586Z" fill="#D7ABA5"/>
<path d="M120.413 95.3578C120.085 96.5791 119.694 97.7847 119.24 98.9668C113.528 97.4402 105.079 92.1951 100.384 87.0282L120.413 95.3578ZM103.631 91.9681C103.686 91.9681 103.741 91.9446 103.78 91.9054C103.85 91.8272 103.842 91.7019 103.764 91.6314C103.749 91.6158 102.223 90.2614 99.8601 88.7975C99.7897 89.0245 99.7584 89.142 99.7584 89.142C102.129 90.6059 103.483 91.9133 103.498 91.9289C103.529 91.9524 103.576 91.9681 103.631 91.9681ZM60.6861 81.3134C60.7643 81.3134 60.8347 81.2664 60.866 81.1881C60.9051 81.0864 60.8582 80.9768 60.7565 80.9298C59.1996 80.2957 57.8225 79.5207 57.0323 78.8239C57.0167 78.8709 56.9697 79.0275 56.9541 79.2701C58.1355 80.2252 59.8724 80.9924 60.6157 81.2899C60.6313 81.3056 60.6626 81.3134 60.6861 81.3134ZM60.6626 83.9908C60.7487 83.9908 60.8191 83.936 60.8504 83.8577C60.8895 83.7559 60.8347 83.6463 60.733 83.6072C59.9976 83.341 58.7771 82.84 57.9712 82.1824C57.9399 82.2137 57.8382 82.3155 57.7756 82.5268C58.6362 83.2001 59.8568 83.7011 60.6 83.9673C60.6157 83.9908 60.6391 83.9908 60.6626 83.9908ZM60.733 86.355C60.8191 86.355 60.8973 86.3002 60.9208 86.2141C60.9521 86.1123 60.8895 86.0027 60.7878 85.9714C60.1149 85.7835 59.1761 85.4469 58.3702 84.8362C57.5644 84.2256 58.292 84.985 58.2685 85.2355C59.09 85.8148 60.0132 86.1514 60.6783 86.3393C60.6939 86.355 60.7174 86.355 60.733 86.355ZM63.3618 77.9001C63.4635 77.9001 63.5496 77.8219 63.5574 77.7201C63.5653 77.6105 63.487 77.5166 63.3775 77.5087C62.157 77.4226 60.1228 76.8824 57.8695 75.6377C58.0103 75.8412 58.1981 76.0839 58.4406 76.3736C60.1854 77.2347 61.9692 77.7984 63.354 77.8923C63.354 77.9002 63.3618 77.9001 63.3618 77.9001Z" fill="#6A4500"/>
<path d="M109.147 64.882C111.87 61.4609 115.484 58.5409 119.631 63.6294L120.961 63.9426C127.924 76.8597 131.367 93.8477 137.626 102.694C136.374 100.893 129.567 100.345 126.203 100.189C126.907 97.5271 122.604 96.6503 115.406 94.3174C106.722 91.4991 100.384 87.0368 100.384 87.0368C100.384 87.0368 105.157 69.8923 109.147 64.882Z" fill="#F3F3F3"/>
<path d="M120.014 63.723L119.623 63.629C119.607 63.6056 119.584 63.5821 119.568 63.5664C122.346 68.4279 122.862 75.3719 123.41 82.7072C123.809 88.0463 124.216 93.5576 125.585 98.2391C125.867 98.4974 126.062 98.7792 126.172 99.0767C124.583 94.2465 124.145 88.3751 123.723 82.6916C123.191 75.458 122.674 68.6237 120.014 63.723Z" fill="white"/>
<path d="M49.686 107.626C54.5368 113.263 60.8741 114.359 63.0648 114.828C65.2555 115.298 82.2254 119.494 77.0069 125.021C72.0623 130.25 55.8669 118.664 49.686 107.626Z" fill="#6A4500"/>
<path d="M63.0649 114.828C62.6189 115.173 61.3827 116.269 60.0918 117.435C59.3329 118.116 58.5662 118.821 57.9168 119.408C56.0938 121.075 54.5056 122.539 54.5056 122.539C50.0381 123.471 46.893 121.725 44.9761 119.995C43.4583 118.625 42.2534 117.419 42.2534 117.419C42.2534 117.419 44.9761 113.944 47.5502 110.523C47.6362 110.405 47.7301 110.288 47.8162 110.17C48.4734 109.293 49.1149 108.432 49.6861 107.642C54.5369 113.028 60.4048 114.202 63.0649 114.828Z" fill="#D7ABA5"/>
<path d="M63.0648 114.828C62.6189 115.173 61.3827 116.269 60.0918 117.435C56.884 115.815 52.4244 112.558 49.686 107.626C54.5368 113.028 60.4047 114.202 63.0648 114.828Z" fill="#6A4500"/>
<path d="M57.909 119.408C56.086 121.075 54.4978 122.539 54.4978 122.539C50.0303 123.471 46.8851 121.725 44.9683 119.995C43.4505 118.625 42.2456 117.419 42.2456 117.419C42.2456 117.419 44.9683 113.944 47.5424 110.522L57.909 119.408Z" fill="#F0DDB9"/>
<path d="M56.2893 120.887L46.1261 112.385C45.9697 112.596 45.8054 112.8 45.6489 113.011L55.7104 121.419C55.8903 121.255 56.0859 121.074 56.2893 120.887ZM23.437 114.271C23.304 115.775 24.2819 118.577 27.7088 121.716L44.4284 137.006C47.2528 132.755 50.3041 128.684 54.5289 122.578C51.5559 120.386 48.8645 121.615 46.8616 120.151C44.9213 118.734 42.4802 117.567 40.0861 116.213C39.9922 116.158 39.8983 116.119 39.8045 116.072C39.781 116.056 39.7497 116.049 39.7262 116.033C38.138 115.219 36.4793 114.561 34.7659 114.068C28.1469 112.205 23.8907 114.052 23.4683 114.248C23.4604 114.256 23.4526 114.256 23.4448 114.256L23.437 114.271Z" fill="white"/>
<path d="M44.3577 137.1C44.3108 137.1 44.2638 137.085 44.2247 137.046L27.5834 121.858C24.1643 118.735 23.1003 115.877 23.2411 114.249C23.249 114.178 23.2881 114.116 23.3507 114.092C23.4133 114.069 23.3585 114.092 23.3585 114.084C23.3663 114.077 23.3741 114.077 23.3898 114.069C23.4054 114.061 23.3976 114.069 23.3976 114.061C23.9375 113.81 28.4205 111.916 35.016 113.779C36.3226 114.147 40.7744 116.394 42.3783 117.271C42.4722 117.325 42.5113 117.443 42.4565 117.537C42.4017 117.631 42.2844 117.67 42.1905 117.615C40.6414 116.77 36.1661 114.507 34.9065 114.155C28.6474 112.393 24.3599 114.069 23.6167 114.39C23.5384 115.94 24.6025 118.609 27.8337 121.561L44.3108 136.599C46.4076 133.429 48.387 130.728 50.6716 127.612C51.8295 126.031 53.0265 124.402 54.3957 122.492C54.4583 122.406 54.5835 122.383 54.6695 122.445C54.7556 122.508 54.7791 122.633 54.7165 122.719C53.3473 124.63 52.1424 126.258 50.9845 127.839C48.653 131.01 46.6423 133.75 44.5064 136.999C44.4829 137.069 44.4281 137.1 44.3577 137.1ZM23.4133 114.194L23.4524 114.264L23.4133 114.194Z" fill="#6A4500"/>
<path d="M49.7172 129.31C49.686 129.31 49.6547 129.302 49.6234 129.287C49.5295 129.232 47.331 127.987 46.9398 125.623C46.5721 123.353 46.3999 122.625 44.8978 121.075C44.8195 120.996 44.8273 120.871 44.9056 120.801C44.9838 120.722 45.109 120.73 45.1794 120.808C46.752 122.445 46.9476 123.251 47.3232 125.568C47.6752 127.744 49.7877 128.942 49.8033 128.95C49.8972 129.005 49.9285 129.122 49.8816 129.216C49.8581 129.271 49.7955 129.31 49.7172 129.31ZM47.1432 132.99C47.0337 132.99 46.9476 132.903 46.9476 132.794C46.9476 132.755 46.9007 130.751 44.6474 129.146C43.599 128.402 42.7697 128.339 41.8934 128.285C41.2362 128.238 40.5555 128.191 39.7731 127.838C38.7873 127.384 38.3179 126.782 37.8641 126.202C37.3321 125.521 36.7844 124.817 35.337 124.3C32.9664 123.454 30.94 122.382 29.3126 121.098C26.809 119.133 25.2208 116.683 24.5949 113.833C24.5714 113.731 24.6418 113.622 24.7435 113.598C24.8452 113.575 24.9548 113.645 24.9782 113.747C25.5807 116.511 27.122 118.883 29.5552 120.793C31.1513 122.045 33.1385 123.102 35.47 123.932C37.027 124.488 37.6059 125.239 38.1692 125.96C38.6152 126.531 39.0299 127.071 39.9296 127.478C40.6416 127.807 41.2597 127.846 41.909 127.893C42.801 127.956 43.7164 128.018 44.8586 128.825C47.2997 130.555 47.3232 132.7 47.3232 132.794C47.3388 132.903 47.2449 132.99 47.1432 132.99Z" fill="#6A4500"/>
<path d="M43.7163 133.929C43.0747 133.929 42.2923 133.593 41.6038 132.967C40.5007 131.957 40.1251 130.634 40.7432 129.96C41.3613 129.287 42.7148 129.538 43.818 130.548C44.9211 131.557 45.2967 132.88 44.6786 133.554C44.4439 133.804 44.0996 133.929 43.7163 133.929ZM41.6977 129.968C41.4239 129.968 41.1892 130.046 41.0327 130.219C40.5789 130.72 40.9544 131.847 41.8698 132.677C42.7852 133.507 43.9353 133.789 44.3891 133.287C44.8429 132.786 44.4673 131.659 43.552 130.829C42.9495 130.281 42.2376 129.968 41.6977 129.968Z" fill="#6A4500"/>
<path d="M38.9905 122.046C38.6698 122.046 38.4038 121.779 38.4038 121.458C38.4038 121.396 38.4116 121.325 38.4351 121.271C38.4429 121.247 39.3348 118.468 37.5275 115.305C37.3632 115.023 37.4649 114.663 37.7466 114.507C38.0282 114.342 38.3881 114.444 38.5446 114.726C40.6257 118.366 39.5852 121.521 39.546 121.654C39.4678 121.889 39.2409 122.046 38.9905 122.046ZM36.2444 120.973C35.9236 120.973 35.6576 120.707 35.6576 120.386C35.6576 120.331 35.6654 120.276 35.6811 120.229C35.6889 120.198 36.4947 117.106 34.5231 114.233C34.3432 113.966 34.4058 113.599 34.6718 113.418C34.9378 113.238 35.3055 113.301 35.4855 113.567C37.7779 116.91 36.8468 120.394 36.8077 120.542C36.7451 120.793 36.5104 120.973 36.2444 120.973ZM33.3339 119.454C33.0131 119.454 32.7471 119.188 32.7471 118.867C32.7471 118.82 32.7549 118.773 32.7628 118.726C32.7706 118.703 33.3965 116.033 31.597 113.473C31.4092 113.207 31.4718 112.839 31.7378 112.651C32.0038 112.463 32.3716 112.526 32.5593 112.792C34.6796 115.806 33.9363 118.883 33.905 119.008C33.8425 119.274 33.6077 119.454 33.3339 119.454Z" fill="#F3F3F3"/>
</g>
<g clip-path="url(#clip5_901_3639)">
<path d="M82.1203 70.8981C82.0662 70.9194 82.0059 70.919 81.9525 70.897C81.899 70.875 81.8566 70.8331 81.8342 70.7803L79.0774 64.2734C79.0546 64.2197 79.0545 64.1589 79.0769 64.1046C79.0994 64.0503 79.1427 64.0068 79.1972 63.9837C79.2518 63.9606 79.3132 63.9598 79.3678 63.9815C79.4225 64.0032 79.4661 64.0456 79.4888 64.0994L82.2459 70.6062C82.2686 70.6599 82.2688 70.7206 82.2463 70.7749C82.2238 70.8292 82.1806 70.8727 82.126 70.8958L82.1203 70.8981ZM78.7205 74.4851C78.6715 74.5044 78.6172 74.506 78.5676 74.4894L71.8023 72.2485C71.7467 72.2298 71.7011 72.1899 71.6754 72.1377C71.6497 72.0855 71.646 72.0251 71.6652 71.9698C71.6844 71.9145 71.7249 71.8687 71.7778 71.8426C71.8307 71.8164 71.8918 71.8119 71.9476 71.8301L78.7127 74.071C78.7559 74.0853 78.7934 74.1125 78.8203 74.1488C78.8472 74.1851 78.862 74.2288 78.8629 74.2739C78.8637 74.3191 78.8505 74.3636 78.8251 74.4014C78.7996 74.4392 78.7631 74.4684 78.7205 74.4851Z" fill="#F3F3F3"/>
</g>
<g clip-path="url(#clip6_901_3639)">
<path d="M26.1413 17.7666L26.4945 17.5297L27.2436 17.0165L28.41 16.2245C28.9578 15.8488 29.6882 15.8219 30.4888 16.0859C30.65 16.1403 30.8164 16.2027 30.9867 16.2798C31.5793 16.5486 32.1891 16.9661 32.7887 17.4988C32.8991 17.5979 33.0095 17.6969 33.1172 17.8092C33.5994 18.2759 34.065 18.8221 34.4904 19.4289C34.5217 19.4769 34.5597 19.5262 34.5911 19.5742C34.6382 19.6462 34.6919 19.7196 34.7389 19.7916C35.1312 20.3914 35.4466 20.9959 35.6944 21.5932C35.7541 21.7369 35.8086 21.8726 35.8617 22.0149C36.1386 22.7702 36.2913 23.4926 36.328 24.1425C36.3384 24.3242 36.3355 24.5031 36.3274 24.674C36.2763 25.5127 35.9842 26.1836 35.4364 26.5593L34.286 27.3408L33.5449 27.8488L33.1743 28.1028C31.7014 29.1069 28.9292 27.6091 26.9931 24.7531C25.0425 21.9009 24.6683 18.7707 26.1413 17.7666Z" fill="#F3F3F3"/>
<path d="M26.4941 17.531L27.2432 17.0178C27.6723 17.0453 28.1311 17.1619 28.6129 17.3662L30.4884 16.0872C30.6496 16.1416 30.816 16.204 30.9863 16.281L29.0788 17.581L29.092 17.5838C29.6829 17.8937 30.2702 18.3203 30.8328 18.8315L32.7963 17.4949C32.9067 17.5939 33.0171 17.693 33.1248 17.8052L31.1613 19.1418C31.6474 19.6232 32.105 20.1746 32.5251 20.7734L34.498 19.4249L34.7465 19.7876L32.7657 21.1413C33.1541 21.7265 33.4761 22.3324 33.7372 22.9325L35.6993 21.6025C35.759 21.7462 35.8134 21.8819 35.8665 22.0242L33.9111 23.3555C34.1223 23.8968 34.2713 24.439 34.3635 24.9554C34.3912 25.12 34.4123 25.2832 34.4348 25.4398L36.3277 24.1437C36.338 24.3254 36.3351 24.5044 36.327 24.6753L34.4609 25.9425C34.4762 26.4635 34.4111 26.9402 34.279 27.3407L33.5379 27.8487C33.9401 27.3113 34.097 26.4948 33.9853 25.4771C33.8355 24.1131 33.2235 22.5835 32.2567 21.1661C31.2899 19.7487 30.0914 18.6143 28.8792 17.9743C27.9718 17.4946 27.1476 17.3431 26.4941 17.531Z" fill="#6A4500"/>
<path d="M25.8116 20.8613C25.9966 21.991 26.555 23.2816 27.3726 24.4882C29.1243 27.0709 31.4776 28.4259 32.7253 27.575C33.3851 27.126 33.5842 26.1733 33.3759 24.9904C33.1918 23.923 32.6647 22.6804 31.8314 21.4498C30.0718 18.8724 27.7185 17.5173 26.4708 18.3683C25.8509 18.7911 25.618 19.6746 25.8116 20.8613ZM26.7089 18.715C27.7299 18.0238 29.9176 19.3787 31.4848 21.6881C33.052 23.9974 33.5176 26.5253 32.4952 27.2231C31.4728 27.9208 29.2864 26.5593 27.7258 24.2513C26.9539 23.1233 26.4304 21.9298 26.2435 20.8756C26.2358 20.8464 26.2333 20.8252 26.2256 20.796C26.0621 19.7951 26.241 19.0384 26.7089 18.715Z" fill="#6A4500"/>
<path d="M27.5463 20.0916L28.102 20.9328C27.8628 21.3178 27.6227 21.8062 27.5562 22.2895C27.4975 22.6363 27.5686 22.9895 27.7475 23.2893C27.8937 23.5477 28.1611 23.721 28.4643 23.7567C28.8032 23.7861 29.1649 23.6407 29.474 23.4499C29.3936 23.7024 29.3647 23.9725 29.3995 24.2353C29.447 24.5697 29.6259 24.8695 29.9024 25.0654C30.0828 25.1929 30.3853 25.2976 30.835 25.0946L31.3332 25.8479C31.4012 25.9518 31.5467 25.9822 31.6507 25.9142C31.7546 25.8462 31.785 25.7006 31.717 25.5966L31.2292 24.8594C31.3346 24.7848 31.4361 24.6955 31.5309 24.6048C31.6084 24.5313 31.6201 24.4094 31.5626 24.3214L29.0239 20.2209C29.0068 20.2035 28.9963 20.1875 28.9793 20.1701C28.8793 20.0871 28.7321 20.0978 28.6505 20.1912C28.6331 20.2083 28.5247 20.3306 28.3812 20.5216L27.9301 19.8403C27.8935 19.7844 27.8329 19.7441 27.7653 19.7369C27.6449 19.7186 27.5302 19.8051 27.5105 19.9322C27.4995 19.9851 27.5149 20.0436 27.5463 20.0916ZM30.1804 22.9761L31.0623 24.4033C30.8034 24.6185 30.3931 24.8642 30.1719 24.7006C29.5638 24.242 29.9409 23.3955 30.1804 22.9761ZM28.798 20.7399L29.9087 22.5257C29.6133 22.8161 28.97 23.3514 28.5106 23.3037C28.3491 23.2838 28.2109 23.1859 28.1366 23.046C27.7275 22.3943 28.3597 21.3181 28.798 20.7399Z" fill="#6A4500"/>
</g>
<g clip-path="url(#clip7_901_3639)">
<path d="M34.8858 67.4473L34.4691 67.2732L33.5758 66.9101L32.1913 66.3407C31.5376 66.0755 31.0889 65.4455 30.8586 64.5838C30.8133 64.4097 30.7722 64.2262 30.7418 64.0308C30.6369 63.3502 30.6544 62.5677 30.7807 61.7272C30.8047 61.5718 30.8288 61.4165 30.8663 61.2559C31.002 60.5575 31.2181 59.8275 31.5117 59.0978C31.5363 59.0421 31.5582 58.9798 31.5827 58.924C31.6195 58.8405 31.6537 58.7502 31.6905 58.6667C31.9972 57.9702 32.3528 57.3391 32.7412 56.7718C32.8345 56.6352 32.9238 56.508 33.0198 56.3781C33.5322 55.693 34.0875 55.1369 34.6455 54.7257C34.8015 54.6106 34.9627 54.5089 35.1198 54.4164C35.8973 53.9727 36.6653 53.8398 37.319 54.105L38.6849 54.6664L39.5689 55.0254L40.0109 55.205C41.7628 55.9217 42.0397 59.2454 40.6194 62.6217C39.2111 66.0086 36.6377 68.1641 34.8858 67.4473Z" fill="#F3F3F3"/>
<path d="M34.4689 67.2732L33.5756 66.9101C33.3505 66.5148 33.1877 66.0413 33.0896 65.4962L30.8583 64.5839C30.8131 64.4097 30.7719 64.2262 30.7416 64.0308L33.0101 64.9592L33.0049 64.9459C32.9375 64.2429 32.9763 63.4751 33.1048 62.6798L30.7711 61.7232C30.7952 61.5679 30.8192 61.4125 30.8567 61.2519L33.1904 62.2084C33.3369 61.4981 33.5624 60.7722 33.8519 60.0518L31.5022 59.0939L31.6809 58.6627L34.04 59.6246C34.3359 58.9401 34.6888 58.3023 35.072 57.7217L32.745 56.7625C32.8384 56.626 32.9277 56.4987 33.0237 56.3689L35.3481 57.3214C35.7078 56.8191 36.1045 56.3714 36.5114 55.9889C36.642 55.8684 36.7753 55.7546 36.9018 55.6434L34.6453 54.7257C34.8012 54.6106 34.9625 54.5089 35.1196 54.4164L37.3348 55.3274C37.7905 55.0101 38.2533 54.7898 38.6872 54.673L39.5712 55.0321C38.8581 54.9898 38.0389 55.3271 37.1965 56.0191C36.0674 56.9466 35.0596 58.3793 34.3582 60.0602C33.6568 61.741 33.3425 63.4618 33.4768 64.9063C33.5769 65.9881 33.9212 66.805 34.4689 67.2732Z" fill="#6A4500"/>
<path d="M37.8356 65.9341C38.7353 65.1122 39.5612 63.8662 40.1615 62.44C41.4454 59.3861 41.2847 56.5159 39.8003 55.909C39.0162 55.5874 38.051 55.9668 37.1175 56.8404C36.2729 57.6254 35.4716 58.8157 34.859 60.2697C33.5844 63.3276 33.7451 66.1979 35.2294 66.8047C35.967 67.1062 36.8902 66.7971 37.8356 65.9341ZM35.4001 66.3922C34.19 65.8925 34.1256 63.1687 35.273 60.4372C36.4205 57.7056 38.4036 55.8205 39.6204 56.3176C40.8372 56.8146 40.8949 59.541 39.7448 62.2659C39.188 63.6058 38.4284 64.7644 37.5972 65.5441C37.5756 65.5679 37.5581 65.5825 37.5366 65.6063C36.7393 66.3343 35.9606 66.6173 35.4001 66.3922Z" fill="#6A4500"/>
<path d="M36.1403 64.8503L36.567 63.8686C37.0495 63.8556 37.6246 63.7832 38.0942 63.5603C38.4375 63.41 38.7111 63.1412 38.8743 62.8083C39.0197 62.5285 39.0186 62.191 38.8742 61.9023C38.7033 61.5855 38.3633 61.3505 38.0133 61.1885C38.2852 61.1124 38.5429 60.9804 38.7569 60.7965C39.0275 60.5596 39.1908 60.2267 39.2046 59.8681C39.2133 59.6343 39.1307 59.3058 38.6882 59.0266L39.07 58.1471C39.1231 58.0264 39.0656 57.8801 38.9445 57.8278C38.8234 57.7756 38.6759 57.8336 38.6228 57.9543L38.2492 58.8152C38.1213 58.7656 37.9827 58.728 37.8467 58.697C37.736 58.6713 37.6206 58.7321 37.5756 58.8342L35.3962 63.4687C35.3906 63.4939 35.3824 63.5125 35.3769 63.5377C35.361 63.6745 35.4561 63.7984 35.5869 63.8161C35.6122 63.8215 35.7843 63.846 36.038 63.8615L35.6931 64.6574C35.6644 64.7224 35.6638 64.7995 35.6966 64.8634C35.7504 64.9805 35.8942 65.0315 36.019 64.9747C36.0726 64.9537 36.1158 64.906 36.1403 64.8503ZM37.18 60.8403L37.9396 59.2287C38.2821 59.3322 38.7397 59.5516 38.7225 59.8425C38.6674 60.6474 37.6933 60.8075 37.18 60.8403ZM35.9903 63.3658L36.9365 61.343C37.3672 61.4348 38.2187 61.6914 38.4434 62.1253C38.5195 62.2797 38.5126 62.459 38.4312 62.6062C38.088 63.3477 36.7607 63.4162 35.9903 63.3658Z" fill="#6A4500"/>
</g>
<defs>
<clipPath id="clip0_901_3639">
<rect width="12.3" height="12.4" fill="white" transform="translate(20.1147 34.4375) rotate(13.4809)"/>
</clipPath>
<clipPath id="clip1_901_3639">
<rect width="20.3" height="32" fill="white" transform="translate(79.2651 71.9375) rotate(-16.0805)"/>
</clipPath>
<clipPath id="clip2_901_3639">
<rect width="22.1" height="4.5" fill="white" transform="translate(110.4 131.7)"/>
</clipPath>
<clipPath id="clip3_901_3639">
<rect width="41.2" height="45.5" fill="white" transform="matrix(-1 0 0 1 86.5 37.5)"/>
</clipPath>
<clipPath id="clip4_901_3639">
<rect width="140" height="102.1" fill="white" transform="translate(5.7002 35)"/>
</clipPath>
<clipPath id="clip5_901_3639">
<rect width="10.4" height="9.6" fill="white" transform="translate(69.9048 67.6338) rotate(-21.4465)"/>
</clipPath>
<clipPath id="clip6_901_3639">
<rect width="12.1" height="12.2" fill="white" transform="translate(35.5239 29.4092) rotate(-168.194)"/>
</clipPath>
<clipPath id="clip7_901_3639">
<rect width="12.8" height="13" fill="white" transform="translate(39.8086 52.3662) rotate(68.5461)"/>
</clipPath>
</defs>
</svg>
