<svg width="226" height="80" viewBox="0 0 226 80" fill="none" xmlns="http://www.w3.org/2000/svg">
<g style="mix-blend-mode:multiply" opacity="0.33">
<path d="M22.8022 15.2439L0.570312 36.2772V79.4664H225.76V39.6872C221.195 35.5954 211.238 26.5288 207.932 22.9969C203.8 18.5821 196.125 20.628 190.812 20.5203C185.499 20.4126 183.138 16.3208 183.374 9.86007C183.61 3.39933 182.311 3.61462 178.533 1.03033C175.511 -1.03711 170.269 2.89676 168.025 5.12213C160.272 12.2289 143.703 27.4332 139.453 31.3958C135.202 35.3584 130.913 33.0469 129.299 31.3958C122.687 25.5452 108.071 12.5735 102.498 7.49099C96.9249 2.40851 91.7536 5.37329 89.8645 7.49099C87.818 9.28564 83.0874 13.3487 80.5371 15.2439C77.3493 17.6128 69.5568 15.9976 65.1883 15.2439C60.8198 14.4901 58.8127 13.8441 53.9719 18.0435C49.1311 22.243 45.8843 22.6199 37.7966 15.2439C31.3265 9.34307 25.1045 12.7852 22.8022 15.2439Z" fill="url(#paint0_linear_766_2156)"/>
</g>
<defs>
<linearGradient id="paint0_linear_766_2156" x1="113.165" y1="35.4777" x2="113.165" y2="79.4664" gradientUnits="userSpaceOnUse">
<stop stop-color="#DAB46D"/>
<stop offset="1" stop-color="#F8EEDD"/>
</linearGradient>
</defs>
</svg>
