<svg width="35" height="35" viewBox="0 0 35 35" fill="none" xmlns="http://www.w3.org/2000/svg">
<path d="M28.1457 11.55V19.0604C28.1457 23.5521 25.5791 25.477 21.7291 25.477H8.91031C8.25406 25.477 7.62698 25.4188 7.04365 25.2875C6.67906 25.2292 6.32907 25.1271 6.00824 25.0105C3.82074 24.1938 2.49365 22.2979 2.49365 19.0604V11.55C2.49365 7.05831 5.06031 5.13336 8.91031 5.13336H21.7291C24.9957 5.13336 27.3437 6.51877 27.9707 9.68335C28.0728 10.2667 28.1457 10.8646 28.1457 11.55Z" stroke="#D19D3B" stroke-width="1.5" stroke-miterlimit="10" stroke-linecap="round" stroke-linejoin="round"/>
<path d="M32.5225 15.9252V23.4356C32.5225 27.9273 29.9558 29.8522 26.1058 29.8522H13.2871C12.2079 29.8522 11.2308 29.7065 10.385 29.3856C8.64959 28.744 7.46833 27.4169 7.04541 25.2877C7.62874 25.419 8.25583 25.4772 8.91208 25.4772H21.7308C25.5808 25.4772 28.1475 23.5523 28.1475 19.0606V11.5502C28.1475 10.8647 28.0892 10.2523 27.9725 9.68353C30.7433 10.2669 32.5225 12.221 32.5225 15.9252Z" stroke="#D19D3B" stroke-width="1.5" stroke-miterlimit="10" stroke-linecap="round" stroke-linejoin="round"/>
<path d="M15.31 19.1623C17.4363 19.1623 19.16 17.4386 19.16 15.3123C19.16 13.186 17.4363 11.4623 15.31 11.4623C13.1837 11.4623 11.46 13.186 11.46 15.3123C11.46 17.4386 13.1837 19.1623 15.31 19.1623Z" stroke="#D19D3B" stroke-width="1.5" stroke-miterlimit="10" stroke-linecap="round" stroke-linejoin="round"/>
<path d="M6.9707 12.1041V18.5208" stroke="#D19D3B" stroke-width="1.5" stroke-miterlimit="10" stroke-linecap="round" stroke-linejoin="round"/>
<path d="M23.6567 12.1046V18.5213" stroke="#D19D3B" stroke-width="1.5" stroke-miterlimit="10" stroke-linecap="round" stroke-linejoin="round"/>
</svg>
